<?xml version="1.0" encoding="UTF-8" standalone="no"?>
<svg
   xmlns:dc="http://purl.org/dc/elements/1.1/"
   xmlns:cc="http://creativecommons.org/ns#"
   xmlns:rdf="http://www.w3.org/1999/02/22-rdf-syntax-ns#"
   xmlns:svg="http://www.w3.org/2000/svg"
   xmlns="http://www.w3.org/2000/svg"
   id="svg3054"
   height="306.29001"
   version="1.1"
   width="358.922">
  <metadata
     id="metadata3083">
    <rdf:RDF>
      <cc:Work
         rdf:about="">
        <dc:format>image/svg+xml</dc:format>
        <dc:type
           rdf:resource="http://purl.org/dc/dcmitype/StillImage" />
        <dc:title></dc:title>
      </cc:Work>
    </rdf:RDF>
  </metadata>
  <defs
     id="defs3056">
    <clipPath
       id="Clip0">
      <path
         id="path3059"
         d="M 0,0 450,0 450,450 0,450 0,0 Z" />
    </clipPath>
  </defs>
  <g
     transform="translate(-45.542439,-72.074391)"
     id="Background">
    <g
       clip-path="url(#Clip0)"
       id="Group1">
      <path
         id="path3063"
         d="M 0,450 450,450 450,0 0,0 0,450 Z"
         style="fill:#5bb3df;fill-opacity:0;fill-rule:nonzero;stroke:none" />
      <path
         id="path3065"
         transform="translate(45.5479,72.0908)"
         d="M 343.355,0 15.5478,0 C 7.0019,0 0,7.0088 0,15.5625 L 0,290.723 c 0,8.555 7.0019,15.549 15.5478,15.549 l 327.8072,0 c 8.547,0 15.549,-6.994 15.549,-15.549 l 0,-275.1605 C 358.904,7.0088 351.902,0 343.355,0"
         style="fill:#363631;fill-rule:nonzero;stroke:none" />
      <path
         id="path3067"
         transform="translate(45.5479,72.0908)"
         d="M 343.355,0 15.5478,0 C 7.0019,0 0,7.0088 0,15.5625 l 0,53.5417 358.904,0 0,-53.5417 C 358.904,7.0088 351.902,0 343.355,0"
         style="fill:#efefef;fill-rule:nonzero;stroke:none" />
      <path
         id="path3069"
         transform="translate(45.5479,141.194)"
         d="m 0,14.244 358.904,0 L 358.904,0 0,0 0,14.244 Z"
         style="fill:#2c2c28;fill-rule:nonzero;stroke:none" />
      <path
         id="path3071"
         transform="translate(147.174,212.688)"
         d="M 17.009,97.021 65.508,48.508 17.009,0 0,17.022 31.476,48.508 0,80.012 17.009,97.021"
         style="fill:#3db485;fill-rule:nonzero;stroke:none" />
      <path
         id="path3073"
         transform="translate(228.75,285.635)"
         d="M 37.923,0 0,0 0,24.074 37.038,24.06 74.076,24.074 74.076,0 37.923,0"
         style="fill:#3db485;fill-rule:nonzero;stroke:none" />
      <path
         id="path3075"
         transform="translate(74.8115,93.2725)"
         d="m 26.2485,13.1205 c 0,7.249 -5.8657,13.135 -13.1215,13.135 C 5.8789,26.2555 0,20.3695 0,13.1205 0,5.8867 5.8789,0 13.127,0 20.3828,0 26.2485,5.8867 26.2485,13.1205"
         style="fill:#b0b0b0;fill-opacity:1;fill-rule:nonzero;stroke:none" />
      <path
         id="path3077"
         transform="translate(113.261,93.2725)"
         d="m 26.249,13.1205 c 0,7.249 -5.879,13.135 -13.128,13.135 C 5.879,26.2555 0,20.3695 0,13.1205 0,5.8867 5.879,0 13.121,0 20.37,0 26.249,5.8867 26.249,13.1205"
         style="fill:#b0b0b0;fill-opacity:1;fill-rule:nonzero;stroke:none" />
      <path
         id="path3079"
         transform="translate(151.696,93.2725)"
         d="m 26.249,13.1205 c 0,7.249 -5.864,13.135 -13.12,13.135 C 5.879,26.2555 0,20.3695 0,13.1205 0,5.8867 5.879,0 13.129,0 c 7.256,0 13.12,5.8867 13.12,13.1205"
         style="fill:#b0b0b0;fill-opacity:1;fill-rule:nonzero;stroke:none" />
    </g>
  </g>
</svg>
